<svg width="72" height="72" viewBox="0 0 72 72" fill="none" xmlns="http://www.w3.org/2000/svg">
<g clip-path="url(#clip0_932_64752)">
<rect width="72" height="72" fill="#0B3EE3"/>
<path fill-rule="evenodd" clip-rule="evenodd" d="M52.8743 9.02702C55.9961 9.02702 58.4999 11.4029 58.5 14.3998V57.6002C58.4999 60.5971 55.9961 63 52.8743 63H19.1248C16.0031 62.9999 13.5001 60.597 13.5 57.6002V14.3998C13.5001 11.403 16.0031 9.00009 19.1248 9L52.8743 9.02702ZM36 25.2003C26.6908 25.2003 19.1249 32.4629 19.1248 41.3998C19.1248 50.3368 26.6907 57.6002 36 57.6002C45.3092 57.6001 52.8743 50.3368 52.8743 41.3998C52.8742 32.463 45.3092 25.2004 36 25.2003ZM20.9997 15.0004C19.6191 15.0005 18.5001 16.0746 18.5001 17.4C18.5001 18.7254 19.6191 19.7995 20.9997 19.7997H28.5003C29.8808 19.7994 30.9999 18.7254 30.9999 17.4C30.9999 16.0747 29.8808 15.0006 28.5003 15.0004H20.9997ZM50.8496 15.0004C49.5518 15.0005 48.4998 16.0103 48.4998 17.2562C48.4999 18.502 49.5519 19.5119 50.8496 19.512C52.1474 19.512 53.1992 18.5021 53.1994 17.2562C53.1994 16.0102 52.1474 15.0004 50.8496 15.0004ZM43.3435 15.0004C42.0491 15.0004 41.0001 16.0075 41.0001 17.2501C41.0002 18.4927 42.0492 19.4998 43.3435 19.4998C44.6379 19.4998 45.6869 18.4927 45.687 17.2501C45.687 16.0075 44.6379 15.0004 43.3435 15.0004Z" fill="white"/>
<path d="M49.5 41.3998C49.5 42.8778 48.6891 45.3078 48.0345 46.6733C47.3798 48.0388 46.4203 49.2795 45.2107 50.3246C44.0011 51.3697 42.5651 52.1987 40.9847 52.7643C39.4043 53.3299 37.7104 53.621 35.9998 53.621C34.2892 53.621 32.5953 53.3299 31.0149 52.7643C29.4345 52.1987 27.9985 51.3697 26.7889 50.3246C25.5793 49.2795 24.6198 48.0388 23.9651 46.6733C23.3105 45.3078 22.5 42.8778 22.5 41.3998C22.5 41.3998 29.4869 38.2945 36 41.1081C38.345 42.1212 40.1282 42.5676 42.75 42.5676C45.3718 42.5676 49.5 41.3998 49.5 41.3998Z" fill="white"/>
</g>
<defs>
<clipPath id="clip0_932_64752">
<rect width="72" height="72" fill="white"/>
</clipPath>
</defs>
</svg>
