<?xml version="1.0" standalone="no"?>
<!DOCTYPE svg PUBLIC "-//W3C//DTD SVG 20010904//EN"
 "http://www.w3.org/TR/2001/REC-SVG-20010904/DTD/svg10.dtd">
<svg version="1.0" xmlns="http://www.w3.org/2000/svg"
 width="144.000000pt" height="144.000000pt" viewBox="0 0 144.000000 144.000000"
 preserveAspectRatio="xMidYMid meet">
<g transform="translate(0.000000,144.000000) scale(0.100000,-0.100000)"
fill="#000000" stroke="none">
<path d="M0 720 l0 -720 720 0 720 0 0 720 0 720 -720 0 -720 0 0 -720z m1136
506 l34 -34 0 -472 0 -472 -34 -34 -34 -34 -382 0 -382 0 -34 34 -34 34 0 472
0 472 34 34 34 34 382 0 382 0 34 -34z"/>
<path d="M387 1122 c-10 -10 -17 -25 -17 -33 0 -32 23 -39 127 -39 101 0 104
1 115 25 9 21 8 28 -7 45 -16 17 -31 20 -110 20 -76 0 -95 -3 -108 -18z"/>
<path d="M836 1124 c-9 -8 -16 -22 -16 -29 0 -16 27 -45 41 -45 25 0 49 23 49
45 0 14 -8 29 -19 35 -27 14 -37 13 -55 -6z"/>
<path d="M986 1124 c-9 -8 -16 -22 -16 -29 0 -19 28 -45 49 -45 40 0 57 61 22
80 -27 14 -37 13 -55 -6z"/>
<path d="M609 916 c-188 -67 -275 -269 -190 -441 36 -73 82 -117 161 -154 79
-37 201 -37 280 0 79 37 125 81 161 155 38 77 43 158 14 244 -25 75 -108 159
-188 188 -67 25 -180 29 -238 8z m123 -301 c78 -27 118 -30 198 -15 29 6 56 8
58 5 3 -3 -2 -30 -12 -61 -37 -117 -141 -181 -281 -172 -116 8 -193 64 -230
167 -23 66 -20 78 23 89 71 19 167 14 244 -13z"/>
</g>
</svg>
