<svg width="64" height="64" viewBox="0 0 64 64" fill="none" xmlns="http://www.w3.org/2000/svg">
<rect width="64" height="64" rx="4" fill="#0B3EE3"/>
<mask id="mask0_23444_192619" style="mask-type:luminance" maskUnits="userSpaceOnUse" x="16" y="18" width="32" height="28">
<path fill-rule="evenodd" clip-rule="evenodd" d="M19.3333 18.667C21.1743 18.667 22.6667 20.1594 22.6667 22.0003C22.6667 23.8413 21.1743 25.3337 19.3333 25.3337C17.4924 25.3337 16 23.8413 16 22.0003C16 20.1594 17.4924 18.667 19.3333 18.667ZM47.3333 34.667C47.3333 40.558 42.5577 45.3337 37.1746 45.3337C30.7756 45.3337 26 40.558 26 34.667C26 28.776 30.7756 24.0003 37.1746 24.0003C42.5577 24.0003 47.3333 28.776 47.3333 34.667ZM22 31.3337C22 29.8609 20.8061 28.667 19.3333 28.667C17.8606 28.667 16.6667 29.8609 16.6667 31.3337V42.667C16.6667 44.1398 17.8606 45.3337 19.3333 45.3337C20.8061 45.3337 22 44.1398 22 42.667V31.3337ZM39.287 33.5475H40.7071V32.1501H39.2973V30.4603H37.7546V36.0822C37.7546 36.9704 37.8772 37.577 38.1326 37.902C38.3778 38.2378 38.8477 38.4002 39.5424 38.4002C39.8081 38.4002 40.2065 38.3352 40.7173 38.2161L40.6458 36.9162L39.7672 36.9379C39.614 36.9379 39.5016 36.9054 39.4301 36.8296C39.3585 36.7538 39.3177 36.6671 39.3075 36.5696C39.2973 36.4613 39.287 36.2988 39.287 36.0497V33.5475ZM34.6386 32.161V38.2594H36.1813V32.161H34.6386ZM32.3232 32.0093C32.5928 32.0093 32.8209 32.1001 32.9972 32.2818C33.1735 32.4634 33.2565 32.6854 33.2565 32.9578C33.2565 33.2302 33.1735 33.4421 32.9972 33.6237C32.8313 33.7852 32.6135 33.876 32.3335 33.876C32.0639 33.876 31.8357 33.7852 31.6595 33.6036C31.4832 33.4219 31.3898 33.2 31.3898 32.9376C31.3898 32.6753 31.4832 32.4533 31.6491 32.2717C31.8254 32.09 32.0535 32.0093 32.3232 32.0093Z" fill="white"/>
</mask>
<g mask="url(#mask0_23444_192619)">
<rect x="-34.667" y="-34.666" width="133.333" height="133.333" fill="white"/>
</g>
<path d="M50.0236 17.0254C50.2023 16.3704 51.1313 16.3704 51.31 17.0254L51.6944 18.4351C51.9429 19.3461 52.6545 20.0577 53.5655 20.3062L54.9752 20.6906C55.6302 20.8693 55.6302 21.7983 54.9752 21.977L53.5655 22.3614C52.6545 22.6099 51.9429 23.3215 51.6944 24.2325L51.31 25.6421C51.1313 26.2972 50.2023 26.2972 50.0236 25.6421L49.6392 24.2325C49.3907 23.3215 48.6791 22.6099 47.7681 22.3614L46.3584 21.977C45.7034 21.7983 45.7034 20.8693 46.3584 20.6906L47.7681 20.3062C48.6791 20.0577 49.3907 19.3461 49.6392 18.4351L50.0236 17.0254Z" fill="white"/>
</svg>
