<svg width="32" height="32" viewBox="0 0 32 32" fill="none" xmlns="http://www.w3.org/2000/svg">
<path fill-rule="evenodd" clip-rule="evenodd" d="M9.58333 8.82121C9.58333 7.55556 8.55732 6.52954 7.29167 6.52954C6.02601 6.52954 5 7.55556 5 8.82121C5 10.0869 6.02601 11.1129 7.29167 11.1129C8.55732 11.1129 9.58333 10.0869 9.58333 8.82121ZM19.5575 24.8629C23.2584 24.8629 26.5417 21.5796 26.5417 17.5295C26.5417 13.4795 23.2584 10.1962 19.5575 10.1962C15.1582 10.1962 11.875 13.4795 11.875 17.5295C11.875 21.5796 15.1582 24.8629 19.5575 24.8629ZM7.29167 13.4045C8.30419 13.4045 9.125 14.2254 9.125 15.2379V23.0295C9.125 24.0421 8.30419 24.8629 7.29167 24.8629C6.27914 24.8629 5.45833 24.0421 5.45833 23.0295V15.2379C5.45833 14.2254 6.27914 13.4045 7.29167 13.4045ZM21.9861 16.7599H21.0098V18.4801C21.0098 18.6514 21.0169 18.7631 21.0239 18.8376C21.0309 18.9046 21.059 18.9642 21.1082 19.0163C21.1573 19.0685 21.2346 19.0908 21.34 19.0908L21.944 19.0759L21.9932 19.9695C21.642 20.0515 21.3681 20.0961 21.1854 20.0961C20.7078 20.0961 20.3847 19.9844 20.2162 19.7536C20.0406 19.5302 19.9563 19.1131 19.9563 18.5025V14.6375H21.0169V15.7992H21.9861V16.7599ZM17.8141 19.9993V15.8067H18.8746V19.9993H17.8141ZM16.6856 15.8897C16.5644 15.7648 16.4075 15.7024 16.2222 15.7024C16.0368 15.7024 15.88 15.7579 15.7588 15.8828C15.6447 16.0076 15.5805 16.1602 15.5805 16.3406C15.5805 16.521 15.6447 16.6736 15.7659 16.7984C15.8871 16.9233 16.0439 16.9857 16.2293 16.9857C16.4218 16.9857 16.5715 16.9233 16.6856 16.8123C16.8068 16.6874 16.8638 16.5418 16.8638 16.3545C16.8638 16.1672 16.8068 16.0146 16.6856 15.8897Z" fill="white"/>
</svg>
