<svg width="32" height="32" viewBox="0 0 32 32" fill="none" xmlns="http://www.w3.org/2000/svg">
<path d="M22.5513 14.3576L22.5421 17.0334H20.5859V8H22.5606H22.782H24.203C25.3656 8 25.9562 8.31373 25.9654 8.94118V13.3518C25.9654 13.9792 25.4025 14.2837 24.2676 14.2837H22.5606V14.3576H22.5513ZM24 9.04268H22.5329V13.2318H24V9.04268Z" fill="white"/>
<path d="M1.65167 17.0427L1.64245 19.7186H0V10.6851H1.65167H1.83622H3.02653C4.00461 10.6851 4.49366 10.9988 4.50288 11.6263V16.0369C4.50288 16.6644 4.0323 16.9689 3.08189 16.9689H1.65167V17.0427ZM2.86967 11.737H1.64245V15.9262H2.86967V11.737V11.737Z" fill="white"/>
<path d="M9.5594 16.9689H6.4406C5.52711 16.9689 5.06575 16.6551 5.06575 16.0277L5.07497 14.1915C5.07497 13.5732 5.54556 13.2595 6.49596 13.2503H7.92618V11.737H6.69896L6.68974 12.5675H5.0842V11.6263C5.0842 11.0081 5.56401 10.7036 6.52365 10.7036L8.12918 10.6851C9.07959 10.6851 9.5594 10.9988 9.5594 11.6171V16.9689ZM6.70819 15.917H7.94464L7.93541 14.3022H6.70819V15.917V15.917Z" fill="white"/>
<path d="M13.1488 16.9689H11.7093C10.7589 16.9689 10.2884 16.6551 10.2884 16.0369V11.6263C10.2976 10.9988 10.7866 10.6851 11.7647 10.6851H12.955H13.158H14.7912V18.7866C14.7912 19.4141 14.3114 19.7278 13.361 19.7278H11.7278C10.7774 19.7278 10.2976 19.4141 10.2976 18.7866V17.8547H11.9308V18.6851H13.158V17.0427L13.1488 16.9689ZM11.9216 15.917H13.1488V11.737H11.9216V15.917Z" fill="white"/>
<path d="M19.8477 16.0277C19.8385 16.6551 19.3495 16.9596 18.3714 16.9596H16.7843C15.8247 16.9596 15.3449 16.6459 15.3449 16.0277V11.6171C15.3449 10.9896 15.8247 10.6851 16.7843 10.6851H18.4175C19.3679 10.6851 19.8385 10.9988 19.8385 11.6171V16.0277H19.8477ZM18.2238 11.737H16.9873V15.9262H18.2145L18.2238 11.737Z" fill="white"/>
<path d="M31.9908 8.98731C31.9908 8.35986 31.4279 8.05536 30.293 8.05536H28.3368C27.1926 8.05536 26.6205 8.36909 26.6205 8.98731V17.0519H28.5767V14.293H30.0531V16.5998C30.0531 22.5052 25.2826 27.2757 19.3772 27.2757C15.9539 27.2757 12.8997 25.6609 10.9435 23.1603L11.9216 22.4129L7.99077 19.7647L8.16609 25.3472L9.42099 24.3506C11.7278 27.3033 15.3356 29.2042 19.3772 29.2042C26.3529 29.2042 32 23.5479 32 16.5813L31.9908 8.98731ZM30.0438 13.2411H28.5675V9.08881H30.0438V13.2411Z" fill="white"/>
</svg>
