<svg width="32" height="32" viewBox="0 0 32 32" fill="none" xmlns="http://www.w3.org/2000/svg">
<path d="M15.9971 24.9959H15.7908C14.5781 24.9763 13.382 24.7099 12.2755 24.2128C11.1689 23.7157 10.175 22.9983 9.3542 22.1044C7.82033 20.4359 6.96895 18.2511 6.96895 15.9835C6.96895 13.7159 7.82033 11.5312 9.3542 9.86264C10.1765 8.96968 11.1705 8.25232 12.2766 7.75363C13.3828 7.25494 14.5782 6.98522 15.7911 6.96067C17.004 6.93612 18.2093 7.15724 19.3347 7.61076C20.46 8.06427 21.4822 8.74083 22.3399 9.59978L22.3961 9.65235L22.7487 9.97529C22.7561 9.98231 22.762 9.99076 22.766 10.0001C22.77 10.0095 22.7721 10.0196 22.7721 10.0297C22.7721 10.0399 22.77 10.05 22.766 10.0594C22.762 10.0687 22.7561 10.0772 22.7487 10.0842L15.9971 16.8435L12.5575 13.4L10.4345 15.5254L14.9356 20.0316C15.0749 20.1712 15.2404 20.282 15.4225 20.3576C15.6047 20.4332 15.7999 20.4721 15.9971 20.4721C16.1942 20.4721 16.3895 20.4332 16.5716 20.3576C16.7538 20.282 16.9192 20.1712 17.0586 20.0316L24.8642 12.2284C25.159 11.9332 25.3907 11.5811 25.5453 11.1935C25.7 10.8059 25.7743 10.3909 25.7638 9.97366C25.7532 9.55642 25.6581 9.14568 25.4841 8.76639C25.3101 8.3871 25.061 8.04717 24.7517 7.76727L24.4329 7.47812C23.2887 6.34378 21.9282 5.45152 20.4324 4.85447C18.9366 4.25743 17.3361 3.9678 15.7262 4.00284C14.1163 4.03788 12.5299 4.39686 11.0615 5.05842C9.59302 5.71998 8.27255 6.67058 7.17867 7.85364C5.1345 10.0791 4 12.9921 4 16.0154C4 19.0388 5.1345 21.9518 7.17867 24.1773C8.27397 25.3617 9.59801 26.3112 11.0706 26.9682C12.5432 27.6253 14.1337 27.9763 15.7458 28H15.9971C19.1804 28 22.2334 26.734 24.4844 24.4805C26.7354 22.2269 28 19.1705 28 15.9835H24.9993C24.9993 18.3738 24.0508 20.6661 22.3626 22.3562C20.6743 24.0464 18.3846 24.9959 15.9971 24.9959Z" fill="white"/>
</svg>
