<svg width="192" height="192" viewBox="0 0 192 192" fill="none" xmlns="http://www.w3.org/2000/svg">
<rect width="192" height="192" fill="#0B3EE3"/>
<path d="M146.825 90.3687C146.825 81.3674 140.396 75 131.089 75H112.719V119.699H120.067V105.738H129.804L139.05 119.699H147.622L137.825 104.329C143.335 102.003 146.826 96.7372 146.826 90.3687H146.825ZM131.211 98.5743H120.066V82.1641H131.211C136.11 82.1641 139.478 85.5322 139.478 90.3697C139.478 95.2073 136.11 98.5754 131.211 98.5754V98.5743Z" fill="white"/>
<path d="M46.3496 75.1505H27.918V119.85H35.2654V106.501H46.3485C55.9007 106.501 62.3306 99.8881 62.3306 90.8254C62.3306 81.7626 55.9007 75.1494 46.3485 75.1494L46.3496 75.1505ZM46.4714 99.3371H35.2654V82.3146H46.4714C51.4923 82.3146 54.9832 85.866 54.9832 90.8264C54.9832 95.7869 51.4933 99.3371 46.4714 99.3371Z" fill="white"/>
<path d="M163.348 75.1504H156V119.849H163.348V75.1504Z" fill="white"/>
<path d="M68.5703 112.078H71.0328L68.8657 119.85H76.2142L78.3813 112.078H92.9435L95.1105 119.85H102.459L100.292 112.078H102.754V104.806H68.5703V112.078Z" fill="white"/>
<path d="M89.9959 75.1504H81.3278L76.4687 92.5794H68.5703V99.8502H102.754V92.5794H94.8561L89.997 75.1504H89.9959ZM83.8172 92.5794L85.6629 85.9607L87.5087 92.5794H83.8182H83.8172Z" fill="white"/>
</svg>
