<svg width="32" height="32" viewBox="0 0 32 32" fill="none" xmlns="http://www.w3.org/2000/svg">
<path d="M26 16L22 20L20.59 18.59L22.17 17H16.94C16.6 20.1 14.68 22.72 12 24.05C11.96 25.69 10.64 27 9 27C7.34 27 6 25.66 6 24C6 22.34 7.34 21 9 21C9.95 21 10.78 21.45 11.33 22.14C13.23 21.11 14.59 19.23 14.91 17H11.81C11.4 18.16 10.3 19 9 19C7.34 19 6 17.66 6 16C6 14.34 7.34 13 9 13C10.3 13 11.4 13.84 11.82 15H14.92C14.6 12.77 13.23 10.9 11.33 9.86C10.78 10.55 9.95 11 9 11C7.34 11 6 9.66 6 8C6 6.34 7.34 5 9 5C10.64 5 11.96 6.31 11.99 7.95C14.67 9.28 16.59 11.9 16.93 15H22.16L20.58 13.41L22 12L26 16Z" fill="white"/>
</svg>
