<svg width="33" height="32" viewBox="0 0 33 32" fill="none" xmlns="http://www.w3.org/2000/svg">
<path fill-rule="evenodd" clip-rule="evenodd" d="M29.1739 6.17431C29.0551 5.73885 28.4374 5.73885 28.3187 6.17431L28.0631 7.11148C27.8979 7.7171 27.4248 8.19023 26.8192 8.35539L25.882 8.61099C25.4465 8.72975 25.4465 9.34741 25.882 9.46618L26.8192 9.72177C27.4248 9.88694 27.8979 10.3601 28.0631 10.9657L28.3187 11.9029C28.4374 12.3383 29.0551 12.3383 29.1739 11.9028L29.4295 10.9657C29.5946 10.3601 30.0678 9.88694 30.6734 9.72177L31.6105 9.46618C32.046 9.34741 32.046 8.72975 31.6105 8.61099L30.6734 8.35539C30.0678 8.19023 29.5946 7.7171 29.4295 7.11148L29.1739 6.17431ZM10.1232 9.49337C10.1232 8.2717 9.13286 7.28134 7.91119 7.28134C6.68952 7.28134 5.69916 8.2717 5.69916 9.49337C5.69916 10.715 6.68952 11.7054 7.91119 11.7054C9.13286 11.7054 10.1232 10.715 10.1232 9.49337ZM19.7508 24.9776C23.3231 24.9776 26.4923 21.8084 26.4923 17.8991C26.4923 13.9897 23.3231 10.8206 19.7508 10.8206C15.5044 10.8206 12.3353 13.9897 12.3353 17.8991C12.3353 21.8084 15.5044 24.9776 19.7508 24.9776ZM7.91119 13.9174C8.88853 13.9174 9.68082 14.7097 9.68082 15.6871V23.208C9.68082 24.1853 8.88853 24.9776 7.91119 24.9776C6.93385 24.9776 6.14156 24.1853 6.14156 23.208V15.6871C6.14156 14.7097 6.93385 13.9174 7.91119 13.9174ZM22.095 17.1562H21.1527V18.8167C21.1527 18.982 21.1594 19.0898 21.1662 19.1617C21.173 19.2264 21.2001 19.2839 21.2476 19.3342C21.295 19.3845 21.3696 19.4061 21.4713 19.4061L22.0544 19.3917L22.1018 20.2543C21.7628 20.3334 21.4984 20.3765 21.3222 20.3765C20.8611 20.3765 20.5493 20.2687 20.3866 20.0459C20.2171 19.8302 20.1357 19.4277 20.1357 18.8382V15.1075H21.1594V16.2289H22.095V17.1562ZM18.0679 20.2831V16.2361H19.0917V20.2831H18.0679ZM16.9787 16.3162C16.8617 16.1957 16.7103 16.1354 16.5314 16.1354C16.3524 16.1354 16.201 16.189 16.084 16.3095C15.9739 16.4301 15.912 16.5774 15.912 16.7515C15.912 16.9256 15.9739 17.0729 16.0909 17.1934C16.2079 17.3139 16.3593 17.3742 16.5383 17.3742C16.7241 17.3742 16.8686 17.3139 16.9787 17.2068C17.0957 17.0863 17.1507 16.9456 17.1507 16.7649C17.1507 16.5841 17.0957 16.4368 16.9787 16.3162Z" fill="white"/>
</svg>
